<mxfile host="Electron" agent="Mozilla/5.0 (Windows NT 10.0; Win64; x64) AppleWebKit/537.36 (KHTML, like Gecko) draw.io/26.2.15 Chrome/134.0.6998.205 Electron/35.2.1 Safari/537.36" version="26.2.15">
  <diagram name="Page-1" id="cjb7J34YTsPgeBxKFRys">
    <mxGraphModel dx="730" dy="1000" grid="1" gridSize="10" guides="1" tooltips="1" connect="1" arrows="1" fold="1" page="1" pageScale="1" pageWidth="850" pageHeight="1100" math="0" shadow="0">
      <root>
        <mxCell id="0" />
        <mxCell id="1" parent="0" />
        <mxCell id="Lfwc9-YVRxv9ZCoQ6JSL-1" value="User&lt;div&gt;&lt;br&gt;&lt;/div&gt;" style="shape=umlActor;verticalLabelPosition=bottom;verticalAlign=top;html=1;outlineConnect=0;" vertex="1" parent="1">
          <mxGeometry x="140" y="200" width="30" height="60" as="geometry" />
        </mxCell>
        <mxCell id="Lfwc9-YVRxv9ZCoQ6JSL-2" value="&quot;Aναζήτηση Συγκατοίκων&quot;" style="shape=umlBoundary;whiteSpace=wrap;html=1;" vertex="1" parent="1">
          <mxGeometry x="290" y="70" width="100" height="80" as="geometry" />
        </mxCell>
        <mxCell id="Lfwc9-YVRxv9ZCoQ6JSL-3" value="" style="endArrow=classic;html=1;rounded=0;exitX=1;exitY=0.3333333333333333;exitDx=0;exitDy=0;exitPerimeter=0;entryX=-0.002;entryY=0.49;entryDx=0;entryDy=0;entryPerimeter=0;" edge="1" parent="1" source="Lfwc9-YVRxv9ZCoQ6JSL-1" target="Lfwc9-YVRxv9ZCoQ6JSL-2">
          <mxGeometry width="50" height="50" relative="1" as="geometry">
            <mxPoint x="220" y="220" as="sourcePoint" />
            <mxPoint x="270" y="170" as="targetPoint" />
          </mxGeometry>
        </mxCell>
        <mxCell id="Lfwc9-YVRxv9ZCoQ6JSL-4" value="Φόρτωση Λίστας Προτεινόμενων Προφίλ" style="ellipse;shape=umlControl;whiteSpace=wrap;html=1;" vertex="1" parent="1">
          <mxGeometry x="500" y="60" width="80" height="90" as="geometry" />
        </mxCell>
        <mxCell id="Lfwc9-YVRxv9ZCoQ6JSL-5" value="" style="endArrow=classic;html=1;rounded=0;exitX=1.014;exitY=0.475;exitDx=0;exitDy=0;exitPerimeter=0;entryX=0.028;entryY=0.529;entryDx=0;entryDy=0;entryPerimeter=0;" edge="1" parent="1" source="Lfwc9-YVRxv9ZCoQ6JSL-2" target="Lfwc9-YVRxv9ZCoQ6JSL-4">
          <mxGeometry width="50" height="50" relative="1" as="geometry">
            <mxPoint x="430" y="140" as="sourcePoint" />
            <mxPoint x="480" y="90" as="targetPoint" />
          </mxGeometry>
        </mxCell>
        <mxCell id="Lfwc9-YVRxv9ZCoQ6JSL-6" value="User Profile" style="ellipse;shape=umlEntity;whiteSpace=wrap;html=1;" vertex="1" parent="1">
          <mxGeometry x="680" y="65" width="80" height="80" as="geometry" />
        </mxCell>
        <mxCell id="Lfwc9-YVRxv9ZCoQ6JSL-7" value="Preferences" style="ellipse;shape=umlEntity;whiteSpace=wrap;html=1;" vertex="1" parent="1">
          <mxGeometry x="680" y="190" width="80" height="80" as="geometry" />
        </mxCell>
        <mxCell id="Lfwc9-YVRxv9ZCoQ6JSL-8" value="" style="endArrow=classic;html=1;rounded=0;exitX=0;exitY=0.5;exitDx=0;exitDy=0;entryX=0.998;entryY=0.653;entryDx=0;entryDy=0;entryPerimeter=0;" edge="1" parent="1" source="Lfwc9-YVRxv9ZCoQ6JSL-7" target="Lfwc9-YVRxv9ZCoQ6JSL-4">
          <mxGeometry width="50" height="50" relative="1" as="geometry">
            <mxPoint x="550" y="260" as="sourcePoint" />
            <mxPoint x="600" y="210" as="targetPoint" />
          </mxGeometry>
        </mxCell>
        <mxCell id="Lfwc9-YVRxv9ZCoQ6JSL-9" value="" style="endArrow=classic;html=1;rounded=0;exitX=0;exitY=0.313;exitDx=0;exitDy=0;exitPerimeter=0;entryX=0.992;entryY=0.458;entryDx=0;entryDy=0;entryPerimeter=0;" edge="1" parent="1" source="Lfwc9-YVRxv9ZCoQ6JSL-6" target="Lfwc9-YVRxv9ZCoQ6JSL-4">
          <mxGeometry width="50" height="50" relative="1" as="geometry">
            <mxPoint x="600" y="80" as="sourcePoint" />
            <mxPoint x="650" y="30" as="targetPoint" />
          </mxGeometry>
        </mxCell>
        <mxCell id="Lfwc9-YVRxv9ZCoQ6JSL-13" value="" style="endArrow=classic;html=1;rounded=0;entryX=-0.018;entryY=0.482;entryDx=0;entryDy=0;entryPerimeter=0;exitX=0.5;exitY=0.5;exitDx=0;exitDy=0;exitPerimeter=0;" edge="1" parent="1" source="Lfwc9-YVRxv9ZCoQ6JSL-1" target="Lfwc9-YVRxv9ZCoQ6JSL-19">
          <mxGeometry width="50" height="50" relative="1" as="geometry">
            <mxPoint x="200" y="270" as="sourcePoint" />
            <mxPoint x="298.4000000000001" y="233.92000000000007" as="targetPoint" />
          </mxGeometry>
        </mxCell>
        <mxCell id="Lfwc9-YVRxv9ZCoQ6JSL-14" value="Like/Skip" style="edgeLabel;html=1;align=center;verticalAlign=middle;resizable=0;points=[];" vertex="1" connectable="0" parent="Lfwc9-YVRxv9ZCoQ6JSL-13">
          <mxGeometry x="-0.2943" relative="1" as="geometry">
            <mxPoint as="offset" />
          </mxGeometry>
        </mxCell>
        <mxCell id="Lfwc9-YVRxv9ZCoQ6JSL-15" value="" style="endArrow=classic;html=1;rounded=0;exitX=0.502;exitY=1.001;exitDx=0;exitDy=0;exitPerimeter=0;" edge="1" parent="1" source="Lfwc9-YVRxv9ZCoQ6JSL-4">
          <mxGeometry width="50" height="50" relative="1" as="geometry">
            <mxPoint x="520" y="350" as="sourcePoint" />
            <mxPoint x="540" y="260" as="targetPoint" />
          </mxGeometry>
        </mxCell>
        <mxCell id="Lfwc9-YVRxv9ZCoQ6JSL-16" value="Λίστα Προτεινόμενων Προφίλ" style="ellipse;shape=umlEntity;whiteSpace=wrap;html=1;" vertex="1" parent="1">
          <mxGeometry x="500" y="260" width="80" height="80" as="geometry" />
        </mxCell>
        <mxCell id="Lfwc9-YVRxv9ZCoQ6JSL-17" value="" style="endArrow=classic;html=1;rounded=0;exitX=0.102;exitY=0.886;exitDx=0;exitDy=0;exitPerimeter=0;entryX=0.818;entryY=0.274;entryDx=0;entryDy=0;entryPerimeter=0;" edge="1" parent="1" source="Lfwc9-YVRxv9ZCoQ6JSL-4" target="Lfwc9-YVRxv9ZCoQ6JSL-18">
          <mxGeometry width="50" height="50" relative="1" as="geometry">
            <mxPoint x="260" y="380" as="sourcePoint" />
            <mxPoint x="440" y="200" as="targetPoint" />
          </mxGeometry>
        </mxCell>
        <mxCell id="Lfwc9-YVRxv9ZCoQ6JSL-18" value="Εμφάνίση Ενός Προφίλ Από τη Λίστα" style="ellipse;shape=umlControl;whiteSpace=wrap;html=1;" vertex="1" parent="1">
          <mxGeometry x="410" y="170" width="90" height="100" as="geometry" />
        </mxCell>
        <mxCell id="Lfwc9-YVRxv9ZCoQ6JSL-19" value="Προφιλ Χρήστη" style="shape=umlBoundary;whiteSpace=wrap;html=1;" vertex="1" parent="1">
          <mxGeometry x="250" y="190" width="100" height="80" as="geometry" />
        </mxCell>
        <mxCell id="Lfwc9-YVRxv9ZCoQ6JSL-20" value="" style="endArrow=classic;html=1;rounded=0;exitX=0;exitY=0.5;exitDx=0;exitDy=0;entryX=0.578;entryY=1.001;entryDx=0;entryDy=0;entryPerimeter=0;" edge="1" parent="1" source="Lfwc9-YVRxv9ZCoQ6JSL-16" target="Lfwc9-YVRxv9ZCoQ6JSL-18">
          <mxGeometry width="50" height="50" relative="1" as="geometry">
            <mxPoint x="300" y="340" as="sourcePoint" />
            <mxPoint x="350" y="290" as="targetPoint" />
          </mxGeometry>
        </mxCell>
        <mxCell id="Lfwc9-YVRxv9ZCoQ6JSL-21" value="" style="endArrow=classic;html=1;rounded=0;exitX=0.019;exitY=0.615;exitDx=0;exitDy=0;exitPerimeter=0;entryX=0.958;entryY=0.543;entryDx=0;entryDy=0;entryPerimeter=0;" edge="1" parent="1" source="Lfwc9-YVRxv9ZCoQ6JSL-18" target="Lfwc9-YVRxv9ZCoQ6JSL-19">
          <mxGeometry width="50" height="50" relative="1" as="geometry">
            <mxPoint x="210" y="370" as="sourcePoint" />
            <mxPoint x="260" y="320" as="targetPoint" />
          </mxGeometry>
        </mxCell>
        <mxCell id="Lfwc9-YVRxv9ZCoQ6JSL-22" value="" style="endArrow=classic;html=1;rounded=0;exitX=0.6;exitY=1;exitDx=0;exitDy=0;exitPerimeter=0;entryX=0.36;entryY=0.124;entryDx=0;entryDy=0;entryPerimeter=0;" edge="1" parent="1" source="Lfwc9-YVRxv9ZCoQ6JSL-19" target="Lfwc9-YVRxv9ZCoQ6JSL-23">
          <mxGeometry width="50" height="50" relative="1" as="geometry">
            <mxPoint x="340" y="390" as="sourcePoint" />
            <mxPoint x="310" y="380" as="targetPoint" />
          </mxGeometry>
        </mxCell>
        <mxCell id="Lfwc9-YVRxv9ZCoQ6JSL-31" value="Text" style="edgeLabel;html=1;align=center;verticalAlign=middle;resizable=0;points=[];" vertex="1" connectable="0" parent="Lfwc9-YVRxv9ZCoQ6JSL-22">
          <mxGeometry x="-0.1008" y="2" relative="1" as="geometry">
            <mxPoint y="1" as="offset" />
          </mxGeometry>
        </mxCell>
        <mxCell id="Lfwc9-YVRxv9ZCoQ6JSL-23" value="LIke Or Skip?" style="ellipse;shape=umlControl;whiteSpace=wrap;html=1;" vertex="1" parent="1">
          <mxGeometry x="280" y="370" width="80" height="90" as="geometry" />
        </mxCell>
        <mxCell id="Lfwc9-YVRxv9ZCoQ6JSL-24" value="" style="endArrow=classic;html=1;rounded=0;exitX=1.011;exitY=0.516;exitDx=0;exitDy=0;exitPerimeter=0;entryX=-0.031;entryY=0.593;entryDx=0;entryDy=0;entryPerimeter=0;" edge="1" parent="1" source="Lfwc9-YVRxv9ZCoQ6JSL-23" target="Lfwc9-YVRxv9ZCoQ6JSL-25">
          <mxGeometry width="50" height="50" relative="1" as="geometry">
            <mxPoint x="470" y="440" as="sourcePoint" />
            <mxPoint x="490" y="416" as="targetPoint" />
          </mxGeometry>
        </mxCell>
        <mxCell id="Lfwc9-YVRxv9ZCoQ6JSL-32" value="Like" style="edgeLabel;html=1;align=center;verticalAlign=middle;resizable=0;points=[];" vertex="1" connectable="0" parent="Lfwc9-YVRxv9ZCoQ6JSL-24">
          <mxGeometry x="-0.335" y="-2" relative="1" as="geometry">
            <mxPoint as="offset" />
          </mxGeometry>
        </mxCell>
        <mxCell id="Lfwc9-YVRxv9ZCoQ6JSL-25" value="Αποστολή Αιτήματος" style="ellipse;shape=umlControl;whiteSpace=wrap;html=1;" vertex="1" parent="1">
          <mxGeometry x="540" y="370" width="70" height="80" as="geometry" />
        </mxCell>
        <mxCell id="Lfwc9-YVRxv9ZCoQ6JSL-26" value="User&lt;div&gt;&lt;br&gt;&lt;/div&gt;" style="shape=umlActor;verticalLabelPosition=bottom;verticalAlign=top;html=1;outlineConnect=0;" vertex="1" parent="1">
          <mxGeometry x="810" y="280" width="30" height="60" as="geometry" />
        </mxCell>
        <mxCell id="Lfwc9-YVRxv9ZCoQ6JSL-27" value="Σελίδα Αιτημάτων Χρήστη" style="shape=umlBoundary;whiteSpace=wrap;html=1;direction=west;" vertex="1" parent="1">
          <mxGeometry x="660" y="380" width="100" height="80" as="geometry" />
        </mxCell>
        <mxCell id="Lfwc9-YVRxv9ZCoQ6JSL-28" value="" style="endArrow=classic;html=1;rounded=0;exitX=0.971;exitY=0.593;exitDx=0;exitDy=0;exitPerimeter=0;entryX=1.041;entryY=0.515;entryDx=0;entryDy=0;entryPerimeter=0;" edge="1" parent="1" source="Lfwc9-YVRxv9ZCoQ6JSL-25" target="Lfwc9-YVRxv9ZCoQ6JSL-27">
          <mxGeometry width="50" height="50" relative="1" as="geometry">
            <mxPoint x="670" y="500" as="sourcePoint" />
            <mxPoint x="720" y="450" as="targetPoint" />
          </mxGeometry>
        </mxCell>
        <mxCell id="Lfwc9-YVRxv9ZCoQ6JSL-30" value="" style="endArrow=classic;html=1;rounded=0;exitX=-0.032;exitY=0.497;exitDx=0;exitDy=0;exitPerimeter=0;" edge="1" parent="1" source="Lfwc9-YVRxv9ZCoQ6JSL-27" target="Lfwc9-YVRxv9ZCoQ6JSL-26">
          <mxGeometry width="50" height="50" relative="1" as="geometry">
            <mxPoint x="740" y="370" as="sourcePoint" />
            <mxPoint x="790" y="320" as="targetPoint" />
          </mxGeometry>
        </mxCell>
        <mxCell id="Lfwc9-YVRxv9ZCoQ6JSL-33" value="Eμφάνιση Ερωτημα-τολογίου" style="ellipse;shape=umlControl;whiteSpace=wrap;html=1;" vertex="1" parent="1">
          <mxGeometry x="277.5" y="540" width="85" height="100" as="geometry" />
        </mxCell>
        <mxCell id="Lfwc9-YVRxv9ZCoQ6JSL-34" value="" style="endArrow=classic;html=1;rounded=0;exitX=0.508;exitY=1.028;exitDx=0;exitDy=0;exitPerimeter=0;entryX=0.507;entryY=0.14;entryDx=0;entryDy=0;entryPerimeter=0;" edge="1" parent="1" source="Lfwc9-YVRxv9ZCoQ6JSL-23" target="Lfwc9-YVRxv9ZCoQ6JSL-33">
          <mxGeometry width="50" height="50" relative="1" as="geometry">
            <mxPoint x="370" y="530" as="sourcePoint" />
            <mxPoint x="420" y="480" as="targetPoint" />
          </mxGeometry>
        </mxCell>
        <mxCell id="Lfwc9-YVRxv9ZCoQ6JSL-36" value="Ερωτηματο-λόγιο" style="shape=umlBoundary;whiteSpace=wrap;html=1;" vertex="1" parent="1">
          <mxGeometry x="120" y="470" width="100" height="80" as="geometry" />
        </mxCell>
        <mxCell id="Lfwc9-YVRxv9ZCoQ6JSL-37" value="" style="endArrow=classic;html=1;rounded=0;exitX=0.037;exitY=0.616;exitDx=0;exitDy=0;exitPerimeter=0;entryX=1.016;entryY=0.535;entryDx=0;entryDy=0;entryPerimeter=0;" edge="1" parent="1" source="Lfwc9-YVRxv9ZCoQ6JSL-33" target="Lfwc9-YVRxv9ZCoQ6JSL-36">
          <mxGeometry width="50" height="50" relative="1" as="geometry">
            <mxPoint x="150" y="610" as="sourcePoint" />
            <mxPoint x="200" y="560" as="targetPoint" />
          </mxGeometry>
        </mxCell>
        <mxCell id="Lfwc9-YVRxv9ZCoQ6JSL-38" value="" style="endArrow=classic;html=1;rounded=0;entryX=0.002;entryY=0.378;entryDx=0;entryDy=0;entryPerimeter=0;" edge="1" parent="1" source="Lfwc9-YVRxv9ZCoQ6JSL-1" target="Lfwc9-YVRxv9ZCoQ6JSL-36">
          <mxGeometry width="50" height="50" relative="1" as="geometry">
            <mxPoint x="160" y="450" as="sourcePoint" />
            <mxPoint x="210" y="400" as="targetPoint" />
          </mxGeometry>
        </mxCell>
        <mxCell id="Lfwc9-YVRxv9ZCoQ6JSL-39" value="Επιλέγει το λόγο που σκίπαρε" style="edgeLabel;html=1;align=center;verticalAlign=middle;resizable=0;points=[];" vertex="1" connectable="0" parent="Lfwc9-YVRxv9ZCoQ6JSL-38">
          <mxGeometry x="-0.3501" y="-2" relative="1" as="geometry">
            <mxPoint as="offset" />
          </mxGeometry>
        </mxCell>
        <mxCell id="Lfwc9-YVRxv9ZCoQ6JSL-40" value="" style="endArrow=classic;html=1;rounded=0;exitX=0.985;exitY=0.307;exitDx=0;exitDy=0;exitPerimeter=0;entryX=0.001;entryY=0.561;entryDx=0;entryDy=0;entryPerimeter=0;" edge="1" parent="1" source="Lfwc9-YVRxv9ZCoQ6JSL-36" target="Lfwc9-YVRxv9ZCoQ6JSL-41">
          <mxGeometry width="50" height="50" relative="1" as="geometry">
            <mxPoint x="380" y="510" as="sourcePoint" />
            <mxPoint x="370" y="490" as="targetPoint" />
          </mxGeometry>
        </mxCell>
        <mxCell id="Lfwc9-YVRxv9ZCoQ6JSL-41" value="Ενημέρωση Λίστας" style="ellipse;shape=umlControl;whiteSpace=wrap;html=1;" vertex="1" parent="1">
          <mxGeometry x="380" y="450" width="70" height="80" as="geometry" />
        </mxCell>
        <mxCell id="Lfwc9-YVRxv9ZCoQ6JSL-42" value="" style="endArrow=classic;html=1;rounded=0;entryX=0.969;entryY=0.566;entryDx=0;entryDy=0;entryPerimeter=0;" edge="1" parent="1" source="Lfwc9-YVRxv9ZCoQ6JSL-25" target="Lfwc9-YVRxv9ZCoQ6JSL-41">
          <mxGeometry width="50" height="50" relative="1" as="geometry">
            <mxPoint x="500" y="520" as="sourcePoint" />
            <mxPoint x="550" y="470" as="targetPoint" />
          </mxGeometry>
        </mxCell>
        <mxCell id="Lfwc9-YVRxv9ZCoQ6JSL-43" value="" style="endArrow=classic;html=1;rounded=0;entryX=0.124;entryY=0.77;entryDx=0;entryDy=0;entryPerimeter=0;exitX=0.779;exitY=0.214;exitDx=0;exitDy=0;exitPerimeter=0;" edge="1" parent="1" source="Lfwc9-YVRxv9ZCoQ6JSL-41" target="Lfwc9-YVRxv9ZCoQ6JSL-16">
          <mxGeometry width="50" height="50" relative="1" as="geometry">
            <mxPoint x="410" y="390" as="sourcePoint" />
            <mxPoint x="460" y="340" as="targetPoint" />
          </mxGeometry>
        </mxCell>
        <mxCell id="Lfwc9-YVRxv9ZCoQ6JSL-44" value="" style="endArrow=classic;html=1;rounded=0;exitX=0.987;exitY=0.581;exitDx=0;exitDy=0;exitPerimeter=0;entryX=0.292;entryY=1.01;entryDx=0;entryDy=0;entryPerimeter=0;" edge="1" parent="1" source="Lfwc9-YVRxv9ZCoQ6JSL-33" target="Lfwc9-YVRxv9ZCoQ6JSL-41">
          <mxGeometry width="50" height="50" relative="1" as="geometry">
            <mxPoint x="440" y="620" as="sourcePoint" />
            <mxPoint x="490" y="570" as="targetPoint" />
          </mxGeometry>
        </mxCell>
      </root>
    </mxGraphModel>
  </diagram>
</mxfile>
